<svg id="Layer_1" data-name="Layer 1" xmlns="http://www.w3.org/2000/svg" viewBox="0 0 874 813"><defs><style>.cls-1,.cls-4{fill:#353535;}.cls-2{fill:#efefef;}.cls-3{fill:#f7b05c;}.cls-4{stroke:#f7b05c;stroke-miterlimit:10;stroke-width:3px;}</style></defs><title>sp</title><polygon class="cls-1" points="193.02 520.78 197.74 638.32 229.39 587.34 193.02 520.78"/><path class="cls-1" d="M680.92,324.73,654.45,319C663.29,319,672.28,321.32,680.92,324.73Z"/><path class="cls-1" d="M714.55,315.59,796,366.06l5.64,6.43-11.61-2.16-31.55,12.06S745.27,362,731.34,354c-9.91-5.67-29.13-20.89-50.42-29.29-8.64-3.41-17.63-5.69-26.47-5.75h0l-25.28-5.49L654,311.27l60.38-20.62,106.26,34.07,6.94,4.86-11.84.71-28.14,19.28S770.12,333,754.72,328.68C746.32,326.31,731.31,319.82,714.55,315.59Z"/><path class="cls-1" d="M514.2,635.34c1.61,2.78-2.93,11-7.32,9.79s-7.59-6.73-6.42-11.12,10.69-13.59,10.69-13.59l12.89-13s11.12-6.42.15-9.36c-4.41-1.19-10.74-2.58-16.72-3.82-8.9-1.85-17.07-3.37-17.07-3.37l3.85-2.41,10.16-6.38h0c.77.13,34.22,5.9,30.74,18.91s-28,25.4-25.34,33.16A3.13,3.13,0,0,1,514.2,635.34Z"/><path class="cls-1" d="M492.12,638.83c1.61,2.78-2.94,11-7.32,9.78s-7.6-6.73-6.42-11.12,10.69-13.58,10.69-13.58l12.88-13s11.12-6.42.16-9.36c-5.72-1.53-14.67-3.42-21.92-4.88-6.65-1.33-11.87-2.31-11.87-2.31l14-8.78a104.82,104.82,0,0,1,11.92,2.89l.1,0a52.62,52.62,0,0,1,13.12,5.74c4.1,2.71,6.71,6.11,5.6,10.24-3.52,13.15-28,25.41-25.33,33.16A3.14,3.14,0,0,1,492.12,638.83Z"/><path class="cls-1" d="M372,630.41c-8.1,9.86-22.64,18.7-20.59,24.77a3.15,3.15,0,0,1,4.39,1.17c1.6,2.78-2.94,11-7.32,9.79s-7.6-6.74-6.42-11.12,10.69-13.59,10.69-13.59l9.92-10h0l2.95-3s11.12-6.43.16-9.36c-4.41-1.18-10.73-2.58-16.71-3.82-8.92-1.85-17.08-3.37-17.08-3.37l3.84-2.41L346,603.12s34.27,5.74,30.74,18.89A23.24,23.24,0,0,1,372,630.41Z"/><circle class="cls-1" cx="611.64" cy="365.94" r="27.82"/><circle class="cls-2" cx="611.55" cy="370.02" r="24.79"/><circle class="cls-1" cx="615.9" cy="363.42" r="12.29"/><path class="cls-1" d="M630.94,291.77a113.51,113.51,0,1,0,80.26,139A113.52,113.52,0,0,0,630.94,291.77ZM581.51,480.64a80.59,80.59,0,1,1,98.7-57A80.58,80.58,0,0,1,581.51,480.64Z"/><path class="cls-3" d="M626.93,307.26a97.64,97.64,0,1,0,69,119.58A97.65,97.65,0,0,0,626.93,307.26ZM584.4,469.73a69.32,69.32,0,1,1,84.9-49A69.32,69.32,0,0,1,584.4,469.73Z"/><polygon class="cls-1" points="458.37 333.17 396.69 228.81 225.09 120.48 74.49 126.63 198.91 183.35 267.11 189.61 375.08 239.48 458.37 333.17"/><polygon class="cls-4" points="447.32 315.44 396.93 229.04 255.72 138.23 131.22 141.69 233.74 189.61 290.06 195.47 379.01 237.59 447.32 315.44"/><polygon class="cls-1" points="434.77 330.99 348.41 259.05 171.34 226.44 51.08 290.99 171.89 294.54 229.49 273.64 334.55 277.32 434.77 330.99"/><polygon class="cls-4" points="418.67 317.25 347.77 258.16 202.38 231.34 103.61 284.32 202.82 287.26 250.12 270.11 336.39 273.16 418.67 317.25"/><path class="cls-1" d="M352,632.74c-7.77,10.43-23.83,19.82-21.68,26.18a3.13,3.13,0,0,1,4.38,1.17c1.61,2.78-2.94,11-7.32,9.79s-7.6-6.73-6.42-11.12,10.69-13.58,10.69-13.58l11.73-11.84,1.15-1.16s11.12-6.42.16-9.36-33.79-7.19-33.79-7.19l14-8.77a103.54,103.54,0,0,1,11.91,2.88,53.27,53.27,0,0,1,13.23,5.78c4.1,2.72,6.7,6.11,5.59,10.24A21.05,21.05,0,0,1,352,632.74Z"/><path class="cls-3" d="M567.48,528.58c-3.68,3.93-8.13,8.51-13.3,13.5a353,353,0,0,1-45.36,37c-1.43,1-2.91,2-4.4,3h0c-3.25,2.17-6.6,4.3-10.06,6.42-1.3.8-2.62,1.58-4,2.37-3.32,2-6.72,3.9-10.21,5.79A285.26,285.26,0,0,1,375.8,630l-3.79.42c-2.94.33-6.06.68-9.32,1h0c-3.7.36-7.59.74-11.65,1.06-2.81.22-5.69.42-8.62.6-43.92,2.61-101.73-1.35-131.65-45-28.75-41.93-22.38-106.86,15.4-162.73-4.12,16.94-10.64,55.07,8.37,91.55,28.26,54.21,101.75,83.36,180.21,65.77l2.06-.48c-8.22-1.4-79.52-14.77-110.44-79-4.21-8.72-27.05-56.12-4.86-104.71,3.52-7.69,18.24-39.91,54.32-53.59a96.38,96.38,0,0,1,35.5-6.12c18.76.27,37.65,5.87,53.15,17.2a81.43,81.43,0,0,1,9.59,8.19c15.89,15.84,21.4,34.4,23.49,43.89A104.64,104.64,0,0,0,441.86,378c-20.47-10.5-43.05-13.2-62.67-8.34a68.94,68.94,0,0,0-23.41,10.57c-37.85,26.79-33.25,85.24-15.2,118.13C372.28,556.16,456,554,476.21,553.49c6-.16,11.87-.6,17.5-1.26A202.1,202.1,0,0,0,551,536.62C557.46,533.82,563,531,567.48,528.58Z"/></svg>