<svg id="Layer_1" data-name="Layer 1" xmlns="http://www.w3.org/2000/svg" viewBox="0 0 1438 638"><defs><style>.cls-1,.cls-4{fill:#f7b05c;}.cls-1,.cls-6{stroke:#353535;}.cls-1,.cls-5,.cls-6{stroke-miterlimit:10;}.cls-1{stroke-width:4px;}.cls-2,.cls-5{fill:#353535;}.cls-3,.cls-6{fill:#efefef;}.cls-5{stroke:#f7b05c;stroke-width:3px;}.cls-6{stroke-width:8px;}</style></defs><title>sp</title><polygon class="cls-1" points="459.17 389.86 440.81 389.86 431.63 373.96 440.81 358.06 459.17 358.06 468.35 373.96 459.17 389.86"/><polygon class="cls-1" points="486.17 374.86 467.81 374.86 458.63 358.96 467.81 343.06 486.17 343.06 495.35 358.96 486.17 374.86"/><polygon class="cls-1" points="459.17 358.86 440.81 358.86 431.63 342.96 440.81 327.06 459.17 327.06 468.35 342.96 459.17 358.86"/><polygon class="cls-2" points="636.21 262.34 635.94 331.02 655.71 302.1 636.21 262.34"/><path class="cls-2" d="M924.42,158.13l-15.29-4A43.41,43.41,0,0,1,924.42,158.13Z"/><path class="cls-2" d="M944.27,153.66l46.24,31.54,3.13,3.89-6.72-1.56-18.71,6.22s-7.21-12.23-15.13-17.24c-5.64-3.57-16.46-12.94-28.66-18.38a43.41,43.41,0,0,0-15.29-4h0l-14.6-3.85,14.57-.65,35.75-10.49L1006,161.72l3.92,3-6.92.11L986,175.36s-9.8-10.1-18.67-13C962.53,160.73,953.94,156.56,944.27,153.66Z"/><path class="cls-2" d="M819.18,335c.87,1.67-2,6.32-4.52,5.52a5.69,5.69,0,0,1-3.46-6.65c.8-2.53,6.59-7.65,6.59-7.65l7.85-7.25s6.65-3.46.33-5.45c-2.55-.81-6.2-1.78-9.66-2.66-5.15-1.31-9.87-2.41-9.87-2.41l2.31-1.3,6.09-3.46h0c.44.1,19.8,4.33,17.44,11.82s-17,14.1-15.63,18.69A1.83,1.83,0,0,1,819.18,335Z"/><path class="cls-2" d="M806.21,336.5c.87,1.66-2,6.32-4.52,5.52a5.7,5.7,0,0,1-3.46-6.65c.8-2.53,6.58-7.65,6.58-7.65l7.85-7.26s6.66-3.46.34-5.45c-3.3-1-8.48-2.38-12.67-3.41-3.84-1-6.86-1.65-6.86-1.65l8.4-4.77a61.88,61.88,0,0,1,6.88,2l.06,0a30.46,30.46,0,0,1,7.5,3.69c2.32,1.69,3.76,3.74,3,6.11-2.4,7.59-17,14.11-15.64,18.7A1.83,1.83,0,0,1,806.21,336.5Z"/><path class="cls-2" d="M736.36,330.5c-5,5.54-13.69,10.32-12.64,13.92a1.82,1.82,0,0,1,2.52.8c.87,1.66-2,6.32-4.52,5.52a5.7,5.7,0,0,1-3.46-6.65c.8-2.53,6.59-7.66,6.59-7.66l6-5.58h0l1.8-1.67s6.65-3.46.33-5.45c-2.54-.8-6.19-1.78-9.65-2.66-5.15-1.31-9.88-2.4-9.88-2.4l2.31-1.31,6.1-3.45s19.83,4.23,17.44,11.81A13.57,13.57,0,0,1,736.36,330.5Z"/><circle class="cls-2" cx="882.95" cy="180.38" r="16.25"/><circle class="cls-3" cx="882.79" cy="182.76" r="14.47"/><circle class="cls-2" cx="885.5" cy="179.02" r="7.18"/><path class="cls-2" d="M896.11,137.62a66.28,66.28,0,1,0,43.25,83.15A66.27,66.27,0,0,0,896.11,137.62Zm-33.69,108.9a47.05,47.05,0,1,1,59-30.7A47,47,0,0,1,862.42,246.52Z"/><path class="cls-4" d="M893.37,146.55a57,57,0,1,0,37.2,71.53A57,57,0,0,0,893.37,146.55Zm-29,93.68a40.48,40.48,0,1,1,50.79-26.41A40.48,40.48,0,0,1,864.39,240.23Z"/><polygon class="cls-2" points="794.38 157.33 761.08 94.86 663.77 27.26 575.76 26.98 646.88 63.26 686.5 68.67 748.2 100.53 794.38 157.33"/><polygon class="cls-5" points="788.39 146.7 761.22 95.01 681.18 38.41 608.47 37.22 667.03 67.81 699.74 72.68 750.55 99.53 788.39 146.7"/><polygon class="cls-2" points="780.67 155.45 732.14 111.26 629.69 87.69 557.88 122.25 628.26 127.43 662.4 116.72 723.59 121.57 780.67 155.45"/><polygon class="cls-5" points="771.63 147.02 731.79 110.73 647.67 91.35 588.69 119.71 646.49 123.98 674.52 115.19 724.77 119.19 771.63 147.02"/><path class="cls-2" d="M724.62,329.34c-4.8,5.89-14.41,11-13.32,14.72a1.83,1.83,0,0,1,2.53.8c.86,1.66-2,6.32-4.52,5.52a5.7,5.7,0,0,1-3.46-6.65c.8-2.53,6.58-7.66,6.58-7.66l7.15-6.6.7-.65s6.65-3.46.33-5.45-19.52-5.06-19.52-5.06l8.4-4.76a60,60,0,0,1,6.87,2,30.88,30.88,0,0,1,7.58,3.71c2.31,1.69,3.74,3.74,3,6.11A12.16,12.16,0,0,1,724.62,329.34Z"/><path class="cls-4" d="M853,274.13c-2.25,2.19-5,4.75-8.11,7.53a206,206,0,0,1-27.41,20.43c-.86.55-1.75,1.09-2.64,1.63h0c-2,1.18-4,2.33-6,3.48-.78.43-1.57.86-2.37,1.28-2,1.06-4,2.11-6.11,3.12a166.61,166.61,0,0,1-61.74,16.75l-2.23.15c-1.72.12-3.55.24-5.46.35h0c-2.17.12-4.45.24-6.82.32-1.64.06-3.33.1-5.05.13-25.68.39-59.3-3.4-75.63-29.62-15.7-25.2-10.31-62.91,13.17-94.53-2.85,9.77-7.63,31.85,2.52,53.62,15.1,32.35,57.21,51.24,103.44,43l1.21-.22c-4.76-1-46-10.66-62.4-48.9-2.23-5.19-14.33-33.42-.14-61.2,2.25-4.4,11.67-22.81,33.07-29.87a56.43,56.43,0,0,1,20.86-2.65,54,54,0,0,1,30.56,11.39,48.16,48.16,0,0,1,5.39,5,51.88,51.88,0,0,1,12.57,26.21,61.06,61.06,0,0,0-20-18.51c-11.67-6.65-24.77-8.81-36.34-6.47a40.1,40.1,0,0,0-13.93,5.56c-22.77,14.66-21.59,48.87-11.91,68.52,17,34.54,65.87,35.44,77.7,35.66,3.53.06,7-.05,10.24-.29a118.12,118.12,0,0,0,33.84-7.63C847,276.92,850.31,275.44,853,274.13Z"/><path class="cls-6" d="M249.83,469a35.65,35.65,0,0,0-4.6-8.88,44.24,44.24,0,0,0-19.07-15.39A121.22,121.22,0,0,0,212.37,440q-6.7-1.9-14.62-3.52l-1.41-.26c-.52-.08-1-.17-1.42-.26s-.67-.14-1-.19a7.73,7.73,0,0,1-1-.19,205.66,205.66,0,0,1-22.74-5.48,33,33,0,0,1-13.66-8.18q-5.47-5.54-5.47-15.2v-.13A26.39,26.39,0,0,1,155.64,391a25.53,25.53,0,0,1,6.11-6.12q10.62-7.65,29.82-7.66a61.06,61.06,0,0,1,21.32,3.93A84.81,84.81,0,0,1,231.48,391c.91.62,1.82,1.27,2.73,1.94L235.6,391l13.56-18.93a110.94,110.94,0,0,0-18.62-10.89,98.6,98.6,0,0,0-19.2-6.51,89.67,89.67,0,0,0-19.77-2.19q-21,0-35.94,6.45t-22.74,18.74A47.45,47.45,0,0,0,127.11,391a62.83,62.83,0,0,0-2,16.36v.13q0,19.85,8.38,30.6c.51.66,1,1.3,1.57,1.91a42.31,42.31,0,0,0,18.59,12.91q11.79,4.05,30.6,7.27l1.93.39a2.51,2.51,0,0,0,.84.13,2.45,2.45,0,0,1,.83.13,144.71,144.71,0,0,1,20.81,5.09,33.79,33.79,0,0,1,6.62,3.08,28.05,28.05,0,0,1,6.52,5.42q5.08,5.73,5.09,15.52v.13q0,13.79-11.21,21.32-7.29,4.9-18.45,6.61a85.83,85.83,0,0,1-13.11.93,89.11,89.11,0,0,1-13-.93,76.74,76.74,0,0,1-14.93-3.71,73.89,73.89,0,0,1-23.57-13.91L118.23,518l-2,2.48a95.27,95.27,0,0,0,19.64,12.88,96.78,96.78,0,0,0,22.61,7.73l12.11,2.58H184.1q21.77,0,37.16-6.38t23.52-18.55c.16-.24.32-.49.47-.74q7.65-12,7.64-28.57v-.26A59.76,59.76,0,0,0,249.83,469Z"/><path class="cls-6" d="M413.42,391a54.47,54.47,0,0,0-3.94-9.27,49.59,49.59,0,0,0-19.77-20.16q-12.75-7.15-29.5-7.15H287.68V612.94H314V469.07h46.25c1.05,0,2.08,0,3.1-.07a58.3,58.3,0,0,0,26.4-7,49.33,49.33,0,0,0,19.77-20c.35-.64.68-1.3,1-2q6-12.27,6-28.13A67.33,67.33,0,0,0,413.42,391ZM386,428.75A26.48,26.48,0,0,1,376.19,440l-.14.09a27.76,27.76,0,0,1-14.94,4H314V379.41h47.15a27.37,27.37,0,0,1,14.94,4.06,25.9,25.9,0,0,1,7.76,7.53,28.08,28.08,0,0,1,2.23,3.87,42.3,42.3,0,0,1,0,33.88Z"/><path class="cls-6" d="M449.36,403.22V541.73h26.28V403.22Z"/><path class="cls-6" d="M634.35,354.42v139.9l-16-25.32L600,440l-31-49-23.14-36.58H522V541.6h26V403.81L571.22,440l18.57,29,31.38,49,15.12,23.6h24.09V354.42Z"/><polygon class="cls-6" points="733.04 379.41 733.04 436.22 812.91 436.22 812.91 461.22 733.04 461.22 733.04 516.74 840.54 516.74 840.54 541.73 706.76 541.73 706.76 354.42 840.54 354.42 840.54 379.41 733.04 379.41"/><polygon class="cls-6" points="890.72 379.41 890.72 437.9 968.15 437.9 968.15 462.89 890.72 462.89 890.72 613.13 864.44 613.13 864.44 354.42 982.32 354.42 982.32 379.41 890.72 379.41"/><path class="cls-6" d="M1134.22,391c-.79-2-1.68-3.87-2.65-5.73a58.55,58.55,0,0,0-23.13-24.22q-14.94-8.57-34.52-8.57t-34.53,8.57a58.53,58.53,0,0,0-23.12,24.22c-1,1.86-1.86,3.77-2.65,5.73a80.39,80.39,0,0,0-5.53,30.54v53.07q0,20.63,8.18,36.27a62.46,62.46,0,0,0,4.33,7.12,57.9,57.9,0,0,0,18.79,17.1q14.94,8.56,34.53,8.57t34.52-8.57a57.94,57.94,0,0,0,18.8-17.1,63.93,63.93,0,0,0,4.33-7.12q8.17-15.66,8.18-36.27V421.54A80.39,80.39,0,0,0,1134.22,391Zm-21.4,84.52a48.82,48.82,0,0,1-4.83,22.22,35,35,0,0,1-13.65,14.81,42.55,42.55,0,0,1-40.84,0,35,35,0,0,1-13.66-14.81,48.82,48.82,0,0,1-4.83-22.22V420.63a48.82,48.82,0,0,1,4.83-22.22,37.24,37.24,0,0,1,4.87-7.41,34.07,34.07,0,0,1,8.79-7.4,42.55,42.55,0,0,1,40.84,0,34.19,34.19,0,0,1,8.78,7.4,37.24,37.24,0,0,1,4.87,7.41,48.82,48.82,0,0,1,4.83,22.22Z"/><path class="cls-6" d="M1240.24,440.86V466h38v8.12q0,13.65-4.77,23.57A34.45,34.45,0,0,1,1260,512.81a38.28,38.28,0,0,1-18.68,5.19q-.82,0-1.68,0c-.57,0-1.14,0-1.7,0a40.7,40.7,0,0,1-19-5,34.82,34.82,0,0,1-13.85-14.1,44.05,44.05,0,0,1-4.89-21.19V422.44q0-13.28,4.77-23.26a38.82,38.82,0,0,1,5.18-8.18,35,35,0,0,1,8.34-7.34,37.31,37.31,0,0,1,20.36-5.54,35.73,35.73,0,0,1,15.46,3.54,37.41,37.41,0,0,1,12.19,9.34c.27.32.55.64.82,1a40.47,40.47,0,0,1,7.86,16.17h28.47a77.75,77.75,0,0,0-5.37-17.14,67.91,67.91,0,0,0-7-12.11,62.9,62.9,0,0,0-22.74-19.51,64.64,64.64,0,0,0-29.69-6.9q-19.59,0-34.46,8.7a58.83,58.83,0,0,0-23,24.54Q1180,388.3,1179,391a82.31,82.31,0,0,0-5.71,31.44v55.27q0,19.71,8.25,34.65A59.53,59.53,0,0,0,1185,518a57.12,57.12,0,0,0,19.72,17.48q15,8.19,34.85,8.19,19.58,0,34.46-8.7a57.75,57.75,0,0,0,18.42-17,63.54,63.54,0,0,0,4.58-7.64q8.12-15.9,8.11-36.78V440.86Z"/></svg>